ReemKufi-Regular.ufo
<glyph name="uni060C" format="2">
  <advance width="241"/>
  <unicode hex="060C"/>
  <outline>
    <contour>
      <point x="152.21488105783237" y="193.4980526440545"/>
      <point x="129.8003943094866" y="144.09627419324534"/>
      <point x="133.8387096774195" y="115.41935483870975" type="curve"/>
      <point x="161.64725846937722" y="119.35646685094343"/>
      <point x="197.61100039070266" y="97.33768648584363"/>
      <point x="197.6970962908931" y="59.003505640231424" type="curve" smooth="yes"/>
      <point x="197.77850992846794" y="22.754101206369555"/>
      <point x="172.1491039141191" y="0.3208418164546798"/>
      <point x="139.05033047553638" y="0.09715531084111717" type="curve" smooth="yes"/>
      <point x="85.66892681410734" y="-0.263604270535177"/>
      <point x="71.71743980077292" y="51.219424682435076"/>
      <point x="72.11257814395151" y="92.7954273183359" type="curve" smooth="yes"/>
      <point x="72.48388054733738" y="131.86343974584096"/>
      <point x="89.3262764836129" y="205.10703411857003"/>
      <point x="174.97382471450624" y="257.9984308224721" type="curve"/>
      <point x="201.6581228953005" y="221.52593774377237" type="line"/>
    </contour>
  </outline>
</glyph>
<glyph name="uni061F" format="2">
  <advance width="600"/>
  <unicode hex="061F"/>
  <outline>
    <contour>
      <point x="291.49898263700476" y="187.4974000723455" type="line"/>
      <point x="196.49898263700476" y="187.4974000723455" type="line"/>
      <point x="196.49898263700476" y="226.4974000723455" type="line" smooth="yes"/>
      <point x="196.49898263700476" y="305.4974000723455"/>
      <point x="163.49898263700476" y="333.4974000723455"/>
      <point x="122.49898263700476" y="369.4974000723455" type="curve" smooth="yes"/>
      <point x="73.49898263700476" y="413.4974000723455"/>
      <point x="27.515003477793705" y="465.96815135358474"/>
      <point x="28.60737804488184" y="553.9805639025633" type="curve" smooth="yes"/>
      <point x="29.749581956794962" y="646.0077173526162"/>
      <point x="114.49898263700477" y="746.4974000723455"/>
      <point x="226.49898263700476" y="746.4974000723455" type="curve" smooth="yes"/>
      <point x="320.97018863700475" y="747.2024090723455"/>
      <point x="381.1457940214157" y="693.2095736840835"/>
      <point x="415.08536782170296" y="643.6796364551217" type="curve" smooth="yes"/>
      <point x="429.2864188932788" y="622.9552404359094"/>
      <point x="457.0" y="607.0"/>
      <point x="471.0" y="602.0" type="curve"/>
      <point x="362.0" y="530.0" type="line"/>
      <point x="361.0" y="546.0"/>
      <point x="348.1958609061887" y="577.2235701620735"/>
      <point x="339.4806449562745" y="590.3802334587066" type="curve" smooth="yes"/>
      <point x="317.1073958146048" y="624.1553352462336"/>
      <point x="283.2771426370048" y="652.4974000723455"/>
      <point x="236.49898263700476" y="652.4974000723455" type="curve" smooth="yes"/>
      <point x="172.49898263700476" y="652.4974000723455"/>
      <point x="120.49898263700476" y="607.4974000723455"/>
      <point x="120.49898263700476" y="545.4974000723455" type="curve" smooth="yes"/>
      <point x="120.49898263700476" y="484.4974000723455"/>
      <point x="167.49898263700476" y="452.4974000723455"/>
      <point x="208.49898263700476" y="418.4974000723455" type="curve" smooth="yes"/>
      <point x="252.49898263700476" y="379.4974000723455"/>
      <point x="291.49898263700476" y="342.4974000723455"/>
      <point x="291.49898263700476" y="248.4974000723455" type="curve" smooth="yes"/>
    </contour>
    <component base="ar1DotAbove.mark" xOffset="247.0" yOffset="58"/>
  </outline>
</glyph>
<glyph name="uni064C" format="2">
  <unicode hex="064C"/>
  <anchor x="0" y="0" name="_markAbove"/>
  <outline>
    <contour>
      <point x="-83.0" y="70.0" type="line"/>
      <point x="-107.0" y="201.0" type="line"/>
      <point x="-140.0" y="195.0" type="line"/>
      <point x="-117.0" y="63.0" type="line"/>
    </contour>
    <component base="uni064F" xOffset="10" yOffset="6"/>
  </outline>
</glyph>
<glyph name="uni0652" format="2">
  <unicode hex="0652"/>
  <anchor x="0" y="0" name="_markAbove"/>
  <outline>
    <contour>
      <point x="-65" y="175" type="curve" smooth="yes"/>
      <point x="-65" y="138"/>
      <point x="-37" y="109"/>
      <point x="1" y="109" type="curve" smooth="yes"/>
      <point x="38" y="109"/>
      <point x="67" y="138"/>
      <point x="67" y="175" type="curve" smooth="yes"/>
      <point x="67" y="212"/>
      <point x="39" y="241"/>
      <point x="1" y="242" type="curve" smooth="yes"/>
      <point x="-37" y="243"/>
      <point x="-65" y="212"/>
    </contour>
    <contour>
      <point x="-98" y="174" type="curve" smooth="yes"/>
      <point x="-98" y="229"/>
      <point x="-54" y="274"/>
      <point x="0" y="274" type="curve" smooth="yes"/>
      <point x="55" y="274"/>
      <point x="100" y="229"/>
      <point x="100" y="174" type="curve" smooth="yes"/>
      <point x="100" y="119"/>
      <point x="55" y="74"/>
      <point x="0" y="74" type="curve" smooth="yes"/>
      <point x="-54" y="74"/>
      <point x="-98" y="119"/>
    </contour>
  </outline>
</glyph>
<glyph name="uni0661" format="2">
  <advance width="500"/>
  <unicode hex="0661"/>
  <outline>
    <contour>
      <point x="200.0" y="0.0" type="line"/>
      <point x="200.0" y="578.0" type="line"/>
      <point x="300.0" y="600.0" type="line"/>
      <point x="300.0" y="0.0" type="line"/>
    </contour>
  </outline>
</glyph>
<glyph name="uni0662" format="2">
  <advance width="500"/>
  <unicode hex="0662"/>
  <outline>
    <contour>
      <point x="390.0" y="500.0" type="line"/>
      <point x="310.0" y="500.0" type="line" smooth="yes"/>
      <point x="254.0" y="500.0"/>
      <point x="210.0" y="485.0"/>
      <point x="210.0" y="410.0" type="curve" smooth="yes"/>
      <point x="210.0" y="0.0" type="line"/>
      <point x="110.0" y="0.0" type="line"/>
      <point x="110.0" y="410.0" type="line" smooth="yes"/>
      <point x="110.0" y="617.0"/>
      <point x="270.0" y="600.0"/>
      <point x="390.0" y="600.0" type="curve"/>
    </contour>
  </outline>
</glyph>
<glyph name="uni0663" format="2">
  <advance width="500"/>
  <unicode hex="0663"/>
  <outline>
    <contour>
      <point x="50.0" y="300.0" type="line"/>
      <point x="440.0" y="300.0" type="line"/>
      <point x="440.0" y="300.0"/>
      <point x="480.0" y="298.0"/>
      <point x="480.0" y="323.0" type="curve" smooth="yes"/>
      <point x="480.0" y="600.0" type="line"/>
      <point x="380.0" y="578.0" type="line"/>
      <point x="380.0" y="400.0" type="line"/>
      <point x="300.0" y="400.0" type="line"/>
      <point x="300.0" y="600.0" type="line"/>
      <point x="200.0" y="577.0" type="line"/>
      <point x="200.0" y="400.0" type="line"/>
      <point x="50.0" y="400.0" type="line"/>
    </contour>
    <contour>
      <point x="120.0" y="599.0" type="line"/>
      <point x="20.0" y="577.0" type="line"/>
      <point x="20.0" y="0.0" type="line"/>
      <point x="120.0" y="0.0" type="line"/>
    </contour>
  </outline>
</glyph>
<glyph name="uni0664" format="2">
  <advance width="500"/>
  <unicode hex="0664"/>
  <outline>
    <contour>
      <point x="299.0" y="622.0" type="line"/>
      <point x="359.0" y="542.0" type="line"/>
      <point x="184.0" y="414.0" type="line"/>
      <point x="349.0" y="275.0" type="line"/>
      <point x="183.0" y="100.0" type="line"/>
      <point x="440.0" y="100.0" type="line"/>
      <point x="440.0" y="0.0" type="line"/>
      <point x="111.0" y="0.0" type="line"/>
      <point x="98.0" y="8.0" type="line" smooth="yes"/>
      <point x="31.0" y="53.0"/>
      <point x="68.0" y="125.0"/>
      <point x="98.0" y="155.0" type="curve" smooth="yes"/>
      <point x="209.0" y="267.0" type="line"/>
      <point x="121.0" y="336.0" type="line"/>
      <point x="103.0" y="352.0"/>
      <point x="76.0" y="380.0"/>
      <point x="79.0" y="423.0" type="curve" smooth="yes"/>
      <point x="81.0" y="456.0"/>
      <point x="103.0" y="479.0"/>
      <point x="125.0" y="494.0" type="curve" smooth="yes"/>
    </contour>
  </outline>
</glyph>
<glyph name="uni0665" format="2">
  <advance width="500"/>
  <unicode hex="0665"/>
  <outline>
    <contour>
      <point x="250.0" y="50.0" type="line"/>
      <point x="102.0" y="281.0" type="line"/>
      <point x="102.0" y="73.0" type="line" smooth="yes"/>
      <point x="102.0" y="48.0"/>
      <point x="142.0" y="50.0"/>
      <point x="142.0" y="50.0" type="curve"/>
    </contour>
    <contour>
      <point x="300.0" y="450.0" type="line"/>
      <point x="300.0" y="200.0" type="line" smooth="yes"/>
      <point x="300.0" y="172.0"/>
      <point x="278.0" y="150.0"/>
      <point x="250.0" y="150.0" type="curve" smooth="yes"/>
      <point x="200.0" y="150.0" type="line"/>
      <point x="200.0" y="400.0" type="line" smooth="yes"/>
      <point x="200.0" y="428.0"/>
      <point x="222.0" y="450.0"/>
      <point x="250.0" y="450.0" type="curve" smooth="yes"/>
    </contour>
    <contour>
      <point x="398.0" y="200.0" type="curve" smooth="yes"/>
      <point x="398.0" y="400.0" type="line" smooth="yes"/>
      <point x="398.0" y="483.0"/>
      <point x="332.0" y="550.0"/>
      <point x="250.0" y="550.0" type="curve" smooth="yes"/>
      <point x="168.0" y="550.0"/>
      <point x="102.0" y="483.0"/>
      <point x="102.0" y="400.0" type="curve" smooth="yes"/>
      <point x="102.0" y="200.0" type="line" smooth="yes"/>
      <point x="102.0" y="117.0"/>
      <point x="168.0" y="50.0"/>
      <point x="250.0" y="50.0" type="curve" smooth="yes"/>
      <point x="332.0" y="50.0"/>
      <point x="398.0" y="117.0"/>
    </contour>
    <contour>
      <point x="398.0" y="400.0" type="line"/>
      <point x="398.0" y="600.0" type="line"/>
      <point x="371.0" y="548.0"/>
      <point x="285.0" y="550.0"/>
      <point x="250.0" y="550.0" type="curve"/>
    </contour>
  </outline>
</glyph>
<glyph name="uni0666" format="2">
  <advance width="500"/>
  <unicode hex="0666"/>
  <outline>
    <contour>
      <point x="321.0" y="0.0" type="line"/>
      <point x="420.0" y="0.0" type="line"/>
      <point x="420.0" y="560.0" type="line"/>
      <point x="420.0" y="560.0"/>
      <point x="422.0" y="600.0"/>
      <point x="397.0" y="600.0" type="curve" smooth="yes"/>
      <point x="80.0" y="600.0" type="line"/>
      <point x="102.0" y="500.0" type="line"/>
      <point x="321.0" y="500.0" type="line"/>
    </contour>
  </outline>
</glyph>
<glyph name="uni0667" format="2">
  <advance width="500"/>
  <unicode hex="0667"/>
  <outline>
    <contour>
      <point x="53.0" y="565.0" type="line"/>
      <point x="143.0" y="612.0" type="line"/>
      <point x="301.0" y="26.0" type="line"/>
      <point x="205.0" y="0.0" type="line"/>
    </contour>
    <contour>
      <point x="205.0" y="19.0" type="line"/>
      <point x="295.0" y="19.0" type="line"/>
      <point x="295.0" y="0.0" type="line"/>
      <point x="205.0" y="0.0" type="line"/>
    </contour>
    <contour>
      <point x="447.0" y="565.0" type="line"/>
      <point x="295.0" y="0.0" type="line"/>
      <point x="199.0" y="26.0" type="line"/>
      <point x="357.0" y="612.0" type="line"/>
    </contour>
  </outline>
</glyph>
<glyph name="uni0668" format="2">
  <advance width="500"/>
  <unicode hex="0668"/>
  <outline>
    <contour>
      <point x="204.0" y="581.0" type="line"/>
      <point x="294.0" y="581.0" type="line"/>
      <point x="294.0" y="600.0" type="line"/>
      <point x="204.0" y="600.0" type="line"/>
    </contour>
    <contour>
      <point x="456.0" y="0.0" type="line"/>
      <point x="294.0" y="600.0" type="line"/>
      <point x="198.0" y="574.0" type="line"/>
      <point x="352.0" y="0.0" type="line"/>
    </contour>
    <contour>
      <point x="148.0" y="0.0" type="line"/>
      <point x="302.0" y="574.0" type="line"/>
      <point x="204.0" y="600.0" type="line"/>
      <point x="44.0" y="0.0" type="line"/>
    </contour>
  </outline>
</glyph>
<glyph name="uni0669" format="2">
  <advance width="500"/>
  <unicode hex="0669"/>
  <outline>
    <contour>
      <point x="340.0" y="246.0" type="line"/>
      <point x="263.0" y="250.0"/>
      <point x="162.0" y="223.0"/>
      <point x="90.0" y="326.0" type="curve"/>
      <point x="28.0" y="427.0"/>
      <point x="70.0" y="542.0"/>
      <point x="149.0" y="587.0" type="curve"/>
      <point x="220.0" y="633.0"/>
      <point x="350.0" y="630.0"/>
      <point x="412.0" y="535.0" type="curve" smooth="yes"/>
      <point x="430.0" y="507.0"/>
      <point x="440.0" y="473.0"/>
      <point x="440.0" y="435.0" type="curve" smooth="yes"/>
      <point x="440.0" y="0.0" type="line"/>
      <point x="340.0" y="0.0" type="line"/>
    </contour>
    <contour>
      <point x="340.0" y="346.0" type="curve"/>
      <point x="340.0" y="435.0" type="line" smooth="yes"/>
      <point x="340.0" y="457.0"/>
      <point x="334.0" y="471.0"/>
      <point x="327.0" y="482.0" type="curve"/>
      <point x="300.0" y="520.0"/>
      <point x="229.0" y="520.0"/>
      <point x="201.0" y="501.0" type="curve"/>
      <point x="171.0" y="485.0"/>
      <point x="143.0" y="433.0"/>
      <point x="174.0" y="380.0" type="curve"/>
      <point x="207.0" y="333.0"/>
      <point x="231.0" y="351.0"/>
    </contour>
  </outline>
</glyph>
<glyph name="uni0670" format="2">
  <unicode hex="0670"/>
  <anchor x="0" y="0.0" name="_markAbove"/>
  <outline>
    <contour>
      <point x="-44.0" y="165.0" type="line"/>
      <point x="-31.0" y="171.0"/>
      <point x="-23.0" y="164.0"/>
      <point x="-23.0" y="155.0" type="curve" smooth="yes"/>
      <point x="-23.0" y="0.0" type="line"/>
      <point x="25.0" y="0.0" type="line"/>
      <point x="25.0" y="233.0" type="line"/>
    </contour>
  </outline>
</glyph>
<glyph name="uni06F6" format="2">
  <advance width="500"/>
  <unicode hex="06F6"/>
  <outline>
    <contour>
      <point x="192.0" y="350.0" type="curve"/>
      <point x="68.0" y="428.0"/>
      <point x="144.0" y="600.0"/>
      <point x="259.0" y="600.0" type="curve" smooth="yes"/>
      <point x="308.0" y="600.0"/>
      <point x="351.0" y="573.0"/>
      <point x="373.0" y="524.0" type="curve"/>
      <point x="344.0" y="549.0"/>
      <point x="308.0" y="559.0"/>
      <point x="280.0" y="554.0" type="curve" smooth="yes"/>
      <point x="247.0" y="549.0"/>
      <point x="219.0" y="517.0"/>
      <point x="219.0" y="484.0" type="curve" smooth="yes"/>
      <point x="219.0" y="433.0"/>
      <point x="269.0" y="388.0"/>
      <point x="308.0" y="400.0" type="curve" smooth="yes"/>
      <point x="440.0" y="440.0" type="line"/>
      <point x="402.0" y="340.0" type="line"/>
      <point x="223.0" y="295.0"/>
      <point x="96.0" y="108.0"/>
      <point x="60.0" y="0.0" type="curve"/>
      <point x="60.0" y="26.0"/>
      <point x="64.0" y="216.0"/>
    </contour>
  </outline>
</glyph>
<glyph name="ar1DotAbove.mark" format="2">
  <anchor x="0" y="0" name="_dotAbove"/>
  <anchor x="0" y="150.0" name="markAbove"/>
  <outline>
    <contour>
      <point x="-58.0" y="0.0" type="curve" smooth="yes"/>
      <point x="-58.0" y="32.0"/>
      <point x="-32.0" y="58.0"/>
      <point x="0.0" y="58.0" type="curve" smooth="yes"/>
      <point x="32.0" y="58.0"/>
      <point x="58.0" y="32.0"/>
      <point x="58.0" y="0.0" type="curve" smooth="yes"/>
      <point x="58.0" y="-32.0"/>
      <point x="32.0" y="-58.0"/>
      <point x="0.0" y="-58.0" type="curve" smooth="yes"/>
      <point x="-32.0" y="-58.0"/>
      <point x="-58.0" y="-32.0"/>
    </contour>
  </outline>
</glyph>
<glyph name="arAin.isol" format="2">
  <advance width="370"/>
  <anchor x="155.0" y="500.0" name="dotAbove"/>
  <anchor x="155.0" y="550.0" name="markAbove"/>
  <anchor x="195.0" y="-270.0" name="markBelow"/>
  <outline>
    <contour>
      <point x="25.0" y="-60.0" type="curve" smooth="yes"/>
      <point x="25.0" y="-10.0"/>
      <point x="46.0" y="18.0"/>
      <point x="70.0" y="42.0" type="curve"/>
      <point x="-30.0" y="127.0"/>
      <point x="44.0" y="300.0"/>
      <point x="159.0" y="300.0" type="curve" smooth="yes"/>
      <point x="208.0" y="300.0"/>
      <point x="251.0" y="273.0"/>
      <point x="273.0" y="224.0" type="curve"/>
      <point x="244.0" y="249.0"/>
      <point x="208.0" y="259.0"/>
      <point x="180.0" y="254.0" type="curve" smooth="yes"/>
      <point x="147.0" y="249.0"/>
      <point x="119.0" y="217.0"/>
      <point x="119.0" y="184.0" type="curve" smooth="yes"/>
      <point x="119.0" y="133.0"/>
      <point x="167.0" y="100.0"/>
      <point x="208.0" y="100.0" type="curve" smooth="yes"/>
      <point x="340.0" y="100.0" type="line"/>
      <point x="280.0" y="0.0" type="line"/>
      <point x="198.0" y="0.0" type="line" smooth="yes"/>
      <point x="172.0" y="0.0"/>
      <point x="126.0" y="-31.0"/>
      <point x="126.0" y="-72.0" type="curve" smooth="yes"/>
      <point x="126.0" y="-180.0"/>
      <point x="306.0" y="-169.0"/>
      <point x="370.0" y="-147.0" type="curve"/>
      <point x="324.0" y="-202.0"/>
      <point x="208.0" y="-223.0"/>
      <point x="132.0" y="-200.0" type="curve" smooth="yes"/>
      <point x="75.0" y="-182.0"/>
      <point x="25.0" y="-131.0"/>
    </contour>
  </outline>
</glyph>
<glyph name="arAlef.isol1" format="2">
  <advance width="313"/>
  <anchor x="140.0" y="850.0" name="hamzaAbove.alt"/>
  <anchor x="140.0" y="-50.0" name="hamzaBelow"/>
  <anchor x="90.0" y="850.0" name="hamzaAbove"/>
  <anchor x="90.0" y="830.0" name="markAbove"/>
  <anchor x="140.0" y="-150.0" name="markBelow"/>
  <outline>
    <contour>
      <point x="125.0" y="800.0" type="line"/>
      <point x="125.0" y="100.0" type="line" smooth="yes"/>
      <point x="125.0" y="53.0"/>
      <point x="204.0" y="18.0"/>
      <point x="313.0" y="72.0" type="curve"/>
      <point x="246.0" y="-35.0"/>
      <point x="25.0" y="-38.0"/>
      <point x="25.0" y="100.0" type="curve" smooth="yes"/>
      <point x="25.0" y="778.0" type="line"/>
    </contour>
  </outline>
</glyph>
<glyph name="arAlef.isol3" format="2">
  <advance width="175"/>
  <anchor x="90.0" y="-50.0" name="hamzaBelow"/>
  <anchor x="90.0" y="850.0" name="hamzaAbove"/>
  <anchor x="90.0" y="830.0" name="markAbove"/>
  <anchor x="90.0" y="-150.0" name="markBelow"/>
  <outline>
    <contour>
      <point x="150.0" y="80.0" type="line" smooth="yes"/>
      <point x="150.0" y="-10.0"/>
      <point x="31.0" y="-32.0"/>
      <point x="0.0" y="25.0" type="curve"/>
      <point x="6.0" y="25.0"/>
      <point x="50.0" y="10.0"/>
      <point x="50.0" y="80.0" type="curve" smooth="yes"/>
      <point x="50.0" y="778.0" type="line"/>
      <point x="150.0" y="800.0" type="line"/>
    </contour>
  </outline>
</glyph>
<glyph name="arBeh.init" format="2">
  <advance width="225"/>
  <anchor x="83.0" y="483.0" name="dotAbove"/>
  <anchor x="83.0" y="-150.0" name="dotBelow"/>
  <anchor x="75.0" y="422.0" name="hamzaAbove"/>
  <anchor x="83.0" y="550.0" name="markAbove"/>
  <anchor x="83.0" y="-150.0" name="markBelow"/>
  <anchor x="143" y="483.0" name="dotAbove.alt"/>
  <outline>
    <contour>
      <point x="200.0" y="300.0" type="line"/>
      <point x="200.0" y="23.0" type="line" smooth="yes"/>
      <point x="200.0" y="-2.0"/>
      <point x="160.0" y="0.0"/>
      <point x="160.0" y="0.0" type="curve"/>
      <point x="-20.0" y="0.0" type="line"/>
      <point x="-20.0" y="100.0" type="line"/>
      <point x="100.0" y="100.0" type="line"/>
      <point x="100.0" y="278.0" type="line"/>
    </contour>
  </outline>
</glyph>
<glyph name="arBeh.initHah" format="2">
  <anchor x="-307.0" y="558.0" name="dotAbove"/>
  <anchor x="-315.0" y="500.0" name="hamzaAbove"/>
  <anchor x="-148.0" y="-98.0" name="dotBelow"/>
  <anchor x="-157.0" y="208.0" name="dotAbove.alt"/>
  <anchor x="-307.0" y="558.0" name="markAbove"/>
  <anchor x="-148.0" y="-150.0" name="markBelow"/>
  <outline>
    <contour>
      <point x="-265.0" y="300.0" type="line" smooth="yes"/>
      <point x="-265.0" y="117.0"/>
      <point x="-400.0" y="158.0"/>
      <point x="-435.0" y="165.0" type="curve"/>
      <point x="-360.0" y="175.0"/>
      <point x="-365.0" y="230.0"/>
      <point x="-365.0" y="300.0" type="curve" smooth="yes"/>
      <point x="-365.0" y="378.0" type="line"/>
      <point x="-265.0" y="400.0" type="line"/>
    </contour>
  </outline>
</glyph>
<glyph name="arDal.fina" format="2">
  <advance width="920"/>
  <anchor x="435.0" y="500.0" name="dotAbove"/>
  <anchor x="435.0" y="440.0" name="hamzaAbove"/>
  <anchor x="435.0" y="500.0" name="markAbove"/>
  <anchor x="435.0" y="-150.0" name="markBelow"/>
  <outline>
    <contour>
      <point x="940.0" y="100.0" type="line"/>
      <point x="940.0" y="0.0" type="line"/>
      <point x="25.0" y="0.0" type="line"/>
      <point x="85.0" y="100.0" type="line"/>
      <point x="720.0" y="100.0" type="line"/>
      <point x="721.0" y="156.0"/>
      <point x="705.0" y="200.0"/>
      <point x="630.0" y="200.0" type="curve" smooth="yes"/>
      <point x="135.0" y="200.0" type="line"/>
      <point x="267.0" y="420.0" type="line"/>
      <point x="277.0" y="413.0" type="line"/>
      <point x="225.0" y="300.0" type="line"/>
      <point x="630.0" y="300.0" type="line" smooth="yes"/>
      <point x="794.0" y="300.0"/>
      <point x="817.0" y="201.0"/>
      <point x="820.0" y="100.0" type="curve"/>
    </contour>
  </outline>
</glyph>
<glyph name="arHah.fina1" format="2">
  <advance width="430"/>
  <anchor x="190.0" y="500.0" name="dotAbove"/>
  <anchor x="181.0" y="-260.0" name="dotBelow"/>
  <anchor x="215.0" y="-85.0" name="dotBelow.alt"/>
  <anchor x="190.0" y="500.0" name="markAbove"/>
  <anchor x="215.0" y="-85.0" name="markBelow"/>
  <outline>
    <contour>
      <point x="219.57652282714844" y="313.1714172363281" type="line"/>
      <point x="463.0" y="-123.0" type="line"/>
      <point x="380.0" y="-200.0" type="line"/>
      <point x="135.6041717529297" y="234.79722595214844" type="line"/>
    </contour>
    <contour>
      <point x="182.0" y="100.0" type="curve" smooth="yes"/>
      <point x="450.0" y="100.0" type="line"/>
      <point x="450.0" y="0.0" type="line"/>
      <point x="182.0" y="0.0" type="line" smooth="yes"/>
      <point x="156.0" y="0.0"/>
      <point x="111.0" y="-21.0"/>
      <point x="111.0" y="-72.0" type="curve" smooth="yes"/>
      <point x="111.0" y="-180.0"/>
      <point x="232.0" y="-187.0"/>
      <point x="296.0" y="-167.0" type="curve"/>
      <point x="239.0" y="-207.0"/>
      <point x="136.0" y="-217.0"/>
      <point x="75.0" y="-170.0" type="curve" smooth="yes"/>
      <point x="45.0" y="-147.0"/>
      <point x="25.0" y="-110.0"/>
      <point x="25.0" y="-57.0" type="curve" smooth="yes"/>
      <point x="25.0" y="13.0"/>
      <point x="54.0" y="100.0"/>
    </contour>
  </outline>
</glyph>
<glyph name="arHah.medi" format="2">
  <advance width="378"/>
  <anchor x="140.0" y="500.0" name="dotAbove"/>
  <anchor x="141.0" y="-210.0" name="dotBelow"/>
  <anchor x="140.0" y="-150.0" name="dotBelow.alt"/>
  <anchor x="140.0" y="500.0" name="markAbove"/>
  <anchor x="140.0" y="-150.0" name="markBelow"/>
  <outline>
    <contour>
      <point x="70.0" y="259.0" type="curve"/>
      <point x="25.0" y="259.0" type="line"/>
      <point x="-25.0" y="359.0" type="line"/>
      <point x="142.0" y="359.0" type="line"/>
      <point x="411.0" y="-123.0" type="line"/>
      <point x="328.0" y="-200.0" type="line"/>
      <point x="242.0" y="-47.0"/>
      <point x="156.0" y="106.0"/>
    </contour>
    <contour>
      <point x="-20.0" y="100.0" type="line"/>
      <point x="398.0" y="100.0" type="line"/>
      <point x="398.0" y="0.0" type="line"/>
      <point x="-20.0" y="0.0" type="line"/>
    </contour>
  </outline>
</glyph>
<glyph name="arHah.medi1" format="2">
  <advance width="378"/>
  <anchor x="140.0" y="500.0" name="dotAbove"/>
  <anchor x="141.0" y="-210.0" name="dotBelow"/>
  <anchor x="140.0" y="-150.0" name="dotBelow.alt"/>
  <anchor x="140.0" y="500.0" name="markAbove"/>
  <anchor x="140.0" y="-150.0" name="markBelow"/>
  <outline>
    <contour>
      <point x="-20.0" y="100.0" type="line"/>
      <point x="398.0" y="100.0" type="line"/>
      <point x="398.0" y="0.0" type="line"/>
      <point x="-20.0" y="0.0" type="line"/>
    </contour>
    <contour>
      <point x="167.576171875" y="313.171875" type="line"/>
      <point x="411.0" y="-123.0" type="line"/>
      <point x="328.0" y="-200.0" type="line"/>
      <point x="83.6044921875" y="234.796875" type="line"/>
    </contour>
  </outline>
</glyph>
<glyph name="arHah.medi2" format="2">
  <advance width="480.0"/>
  <outline>
    <contour>
      <point x="440" y="100" type="line"/>
      <point x="440" y="0" type="line"/>
      <point x="520" y="0" type="line"/>
      <point x="520" y="100" type="line"/>
    </contour>
    <component base="arHah.init2" xOffset="-20"/>
  </outline>
</glyph>
<glyph name="arHamza.isol" format="2">
  <advance width="520"/>
  <anchor x="255" y="550.0" name="markAbove"/>
  <anchor x="245.0" y="-150.0" name="markBelow"/>
  <outline>
    <contour>
      <point x="381.0" y="100.0" type="line"/>
      <point x="348.0" y="100.0" type="line" smooth="yes"/>
      <point x="315.0" y="100.0"/>
      <point x="265.0" y="112.0"/>
      <point x="265.0" y="166.0" type="curve" smooth="yes"/>
      <point x="265.0" y="214.0"/>
      <point x="302.0" y="237.0"/>
      <point x="334.0" y="237.0" type="curve" smooth="yes"/>
      <point x="371.0" y="237.0"/>
      <point x="399.0" y="220.0"/>
      <point x="409.0" y="214.0" type="curve"/>
      <point x="400.0" y="246.0"/>
      <point x="371.0" y="294.0"/>
      <point x="289.0" y="294.0" type="curve" smooth="yes"/>
      <point x="212.0" y="294.0"/>
      <point x="156.0" y="219.0"/>
      <point x="158.0" y="116.0" type="curve" smooth="yes"/>
      <point x="158.0" y="46.0" type="line"/>
      <point x="382.0" y="46.0" type="line"/>
    </contour>
    <contour>
      <point x="435.0" y="0.0" type="line"/>
      <point x="495.0" y="100.0" type="line"/>
      <point x="85.0" y="100.0" type="line"/>
      <point x="25.0" y="0.0" type="line"/>
    </contour>
  </outline>
</glyph>
<glyph name="arHamzaAbove.mark" format="2">
  <anchor x="0" y="0" name="_hamzaAbove.alt"/>
  <anchor x="0" y="0" name="_hamzaAbove"/>
  <anchor x="0.0" y="250.0" name="markAbove"/>
  <outline>
    <contour>
      <point x="88.0" y="50.0" type="line"/>
      <point x="62.0" y="50.0" type="line" smooth="yes"/>
      <point x="37.0" y="50.0"/>
      <point x="0.0" y="49.0"/>
      <point x="0.0" y="89.0" type="curve" smooth="yes"/>
      <point x="0.0" y="96.0"/>
      <point x="-1.0" y="128.0"/>
      <point x="32.0" y="137.0" type="curve" smooth="yes"/>
      <point x="51.0" y="142.0"/>
      <point x="84.0" y="132.0"/>
      <point x="92.0" y="128.0" type="curve"/>
      <point x="79.0" y="159.0"/>
      <point x="47.0" y="168.0"/>
      <point x="29.0" y="168.0" type="curve" smooth="yes"/>
      <point x="-23.0" y="168.0"/>
      <point x="-45.0" y="139.0"/>
      <point x="-56.0" y="99.0" type="curve" smooth="yes"/>
      <point x="-61.0" y="79.0"/>
      <point x="-62.0" y="67.0"/>
      <point x="-62.0" y="42.0" type="curve" smooth="yes"/>
      <point x="-62.0" y="9.0" type="line"/>
      <point x="89.0" y="9.0" type="line"/>
    </contour>
    <contour>
      <point x="105.0" y="0.0" type="line"/>
      <point x="135.0" y="50.0" type="line"/>
      <point x="-105.0" y="50.0" type="line"/>
      <point x="-135.0" y="0.0" type="line"/>
    </contour>
  </outline>
</glyph>
<glyph name="arHeh.fina" format="2">
  <advance width="415"/>
  <outline>
    <contour>
      <point x="435.0" y="100.0" type="line"/>
      <point x="435.0" y="0.0" type="line"/>
      <point x="173.0" y="0.0" type="line"/>
      <point x="238.0" y="100.0" type="line"/>
    </contour>
    <component base="arHeh.isol"/>
  </outline>
</glyph>
<glyph name="arHeh.init2" format="2">
  <advance width="419"/>
  <anchor x="225.0" y="550.0" name="markAbove"/>
  <anchor x="225.0" y="-150.0" name="markBelow"/>
  <outline>
    <contour>
      <point x="394.0" y="304.0" type="line"/>
      <point x="394.0" y="23.0" type="line" smooth="yes"/>
      <point x="394.0" y="-2.0"/>
      <point x="354.0" y="0.0"/>
      <point x="354.0" y="0.0" type="curve"/>
      <point x="174.0" y="0.0" type="line"/>
      <point x="174.0" y="100.0" type="line"/>
      <point x="294.0" y="100.0" type="line"/>
      <point x="294.0" y="282.0" type="line"/>
    </contour>
    <contour>
      <point x="131.0" y="304.0" type="line"/>
      <point x="131.0" y="84.0" type="line"/>
      <point x="97.0" y="84.0" type="line"/>
      <point x="97.0" y="304.0" type="line"/>
    </contour>
    <contour>
      <point x="194.0" y="149.0" type="curve" smooth="yes"/>
      <point x="194.0" y="121.0"/>
      <point x="216.0" y="99.0"/>
      <point x="244.0" y="99.0" type="curve" smooth="yes"/>
      <point x="272.0" y="99.0"/>
      <point x="294.0" y="121.0"/>
      <point x="294.0" y="149.0" type="curve" smooth="yes"/>
      <point x="294.0" y="177.0"/>
      <point x="272.0" y="199.0"/>
      <point x="244.0" y="199.0" type="curve" smooth="yes"/>
      <point x="216.0" y="199.0"/>
      <point x="194.0" y="177.0"/>
    </contour>
    <contour>
      <point x="373.0" y="232.0" type="line"/>
      <point x="387.0" y="209.0"/>
      <point x="394.0" y="178.0"/>
      <point x="394.0" y="150.0" type="curve" smooth="yes"/>
      <point x="394.0" y="67.0"/>
      <point x="327.0" y="0.0"/>
      <point x="245.0" y="0.0" type="curve" smooth="yes"/>
      <point x="163.0" y="0.0"/>
      <point x="97.0" y="67.0"/>
      <point x="97.0" y="150.0" type="curve" smooth="yes"/>
      <point x="97.0" y="178.0"/>
      <point x="105.0" y="209.0"/>
      <point x="118.0" y="232.0" type="curve"/>
    </contour>
    <contour>
      <point x="-20.0" y="100.0" type="line"/>
      <point x="180.0" y="100.0" type="line"/>
      <point x="245.0" y="0.0" type="line"/>
      <point x="-20.0" y="0.0" type="line"/>
    </contour>
    <contour>
      <point x="394.0" y="304.0" type="line"/>
      <point x="245.0" y="454.0" type="line"/>
      <point x="280.0" y="454.0"/>
      <point x="367.0" y="448.0"/>
      <point x="394.0" y="500.0" type="curve"/>
    </contour>
    <contour>
      <point x="194.0" y="304.0" type="curve" smooth="yes"/>
      <point x="194.0" y="276.0"/>
      <point x="216.0" y="254.0"/>
      <point x="244.0" y="254.0" type="curve" smooth="yes"/>
      <point x="272.0" y="254.0"/>
      <point x="294.0" y="276.0"/>
      <point x="294.0" y="304.0" type="curve" smooth="yes"/>
      <point x="294.0" y="332.0"/>
      <point x="272.0" y="354.0"/>
      <point x="244.0" y="354.0" type="curve" smooth="yes"/>
      <point x="216.0" y="354.0"/>
      <point x="194.0" y="332.0"/>
    </contour>
    <contour>
      <point x="118.0" y="227.0" type="line"/>
      <point x="105.0" y="250.0"/>
      <point x="97.0" y="276.0"/>
      <point x="97.0" y="304.0" type="curve" smooth="yes"/>
      <point x="97.0" y="387.0"/>
      <point x="163.0" y="454.0"/>
      <point x="245.0" y="454.0" type="curve" smooth="yes"/>
      <point x="327.0" y="454.0"/>
      <point x="394.0" y="387.0"/>
      <point x="394.0" y="304.0" type="curve" smooth="yes"/>
      <point x="394.0" y="276.0"/>
      <point x="386.0" y="250.0"/>
      <point x="372.0" y="227.0" type="curve"/>
    </contour>
  </outline>
</glyph>
<glyph name="arHeh.init3" format="2">
  <advance width="419"/>
  <outline>
    <contour>
      <point x="295.0" y="426.0" type="line"/>
      <point x="295.0" y="532.0" type="line"/>
      <point x="394.0" y="554.0" type="line"/>
      <point x="394.0" y="394.0" type="line"/>
    </contour>
    <component base="arHeh.init2"/>
  </outline>
</glyph>
<glyph name="arHeh.medi" format="2">
  <advance width="487"/>
  <outline>
    <contour>
      <point x="507.0" y="100.0" type="line"/>
      <point x="507.0" y="0.0" type="line"/>
      <point x="245.0" y="0.0" type="line"/>
      <point x="310.0" y="100.0" type="line"/>
    </contour>
    <component base="arHeh.init"/>
  </outline>
</glyph>
<glyph name="arHighHamza.isol" format="2">
  <advance width="520"/>
  <anchor x="255" y="750.0" name="markAbove"/>
  <anchor x="245.0" y="250.0" name="markBelow"/>
  <outline>
    <contour>
      <point x="381.0" y="500.0" type="line"/>
      <point x="348.0" y="500.0" type="line" smooth="yes"/>
      <point x="315.0" y="500.0"/>
      <point x="265.0" y="512.0"/>
      <point x="265.0" y="566.0" type="curve" smooth="yes"/>
      <point x="265.0" y="614.0"/>
      <point x="302.0" y="637.0"/>
      <point x="334.0" y="637.0" type="curve" smooth="yes"/>
      <point x="371.0" y="637.0"/>
      <point x="399.0" y="620.0"/>
      <point x="409.0" y="614.0" type="curve"/>
      <point x="400.0" y="646.0"/>
      <point x="371.0" y="694.0"/>
      <point x="289.0" y="694.0" type="curve" smooth="yes"/>
      <point x="212.0" y="694.0"/>
      <point x="158.0" y="619.0194156457898"/>
      <point x="158.0" y="516.0" type="curve" smooth="yes"/>
      <point x="158.0" y="446.0" type="line"/>
      <point x="382.0" y="446.0" type="line"/>
    </contour>
    <contour>
      <point x="435.0" y="400.0" type="line"/>
      <point x="495.0" y="500.0" type="line"/>
      <point x="85.0" y="500.0" type="line"/>
      <point x="25.0" y="400.0" type="line"/>
    </contour>
  </outline>
</glyph>
<glyph name="arKaf.fina" format="2">
  <advance width="1085"/>
  <outline>
    <contour>
      <point x="1105.0" y="100.0" type="line"/>
      <point x="1105.0" y="0.0" type="line"/>
      <point x="909.0" y="0.0" type="line"/>
      <point x="909.0" y="100.0" type="line"/>
    </contour>
    <component base="arKaf.isol"/>
  </outline>
</glyph>
<glyph name="arKaf.fina1" format="2">
  <advance width="965"/>
  <anchor x="500.0" y="550.0" name="markAbove"/>
  <anchor x="440.0" y="-150.0" name="markBelow"/>
  <anchor x="500.0" y="500" name="dotAbove"/>
  <outline>
    <contour>
      <point x="110.0" y="300.0" type="line"/>
      <point x="675.0" y="300.0" type="line" smooth="yes"/>
      <point x="839.0" y="300.0"/>
      <point x="862.0" y="201.0"/>
      <point x="865.0" y="100.0" type="curve"/>
      <point x="985.0" y="100.0" type="line"/>
      <point x="985.0" y="0.0" type="line"/>
      <point x="25.0" y="0.0" type="line"/>
      <point x="85.0" y="100.0" type="line"/>
      <point x="765.0" y="100.0" type="line"/>
      <point x="766.0" y="156.0"/>
      <point x="750.0" y="200.0"/>
      <point x="675.0" y="200.0" type="curve" smooth="yes"/>
      <point x="110.0" y="200.0" type="line"/>
    </contour>
    <contour>
      <point x="85.0" y="200.0" type="line"/>
      <point x="85.0" y="778.0" type="line"/>
      <point x="185.0" y="800.0" type="line"/>
      <point x="185.0" y="200.0" type="line"/>
    </contour>
  </outline>
</glyph>
<glyph name="arKaf.medi" format="2">
  <advance width="985"/>
  <outline>
    <contour>
      <point x="1005.0" y="100.0" type="line"/>
      <point x="1005.0" y="0.0" type="line"/>
      <point x="809.0" y="0.0" type="line"/>
      <point x="809.0" y="100.0" type="line"/>
    </contour>
    <component base="arKaf.init"/>
  </outline>
</glyph>
<glyph name="arLam.fina" format="2">
  <advance width="545"/>
  <outline>
    <contour>
      <point x="565.0" y="100.0" type="line"/>
      <point x="565.0" y="0.0" type="line"/>
      <point x="395.0" y="0.0" type="line"/>
      <point x="395.0" y="100.0" type="line"/>
    </contour>
    <component base="arLam.isol"/>
  </outline>
</glyph>
<glyph name="arLam.initHah" format="2">
  <anchor x="-320.0" y="830.0" name="markAbove"/>
  <anchor x="-148.0" y="-150.0" name="markBelow"/>
  <outline>
    <contour>
      <point x="-265.0" y="300.0" type="line" smooth="yes"/>
      <point x="-265.0" y="117.0"/>
      <point x="-400.0" y="158.0"/>
      <point x="-435.0" y="165.0" type="curve"/>
      <point x="-360.0" y="175.0"/>
      <point x="-365.0" y="230.0"/>
      <point x="-365.0" y="300.0" type="curve" smooth="yes"/>
      <point x="-365.0" y="778.0" type="line"/>
      <point x="-265.0" y="800.0" type="line"/>
    </contour>
  </outline>
</glyph>
<glyph name="arLam.mediAlef" format="2">
  <advance width="425"/>
  <outline>
    <contour>
      <point x="445.0" y="100.0" type="line"/>
      <point x="445.0" y="0.0" type="line"/>
      <point x="175.0" y="0.0" type="line"/>
      <point x="225.0" y="100.0" type="line"/>
    </contour>
    <component base="arLam.initAlef"/>
  </outline>
</glyph>
<glyph name="arMeem.fina" format="2">
  <advance width="685"/>
  <outline>
    <contour>
      <point x="440.0" y="0.0" type="line"/>
      <point x="25.0" y="0.0" type="line"/>
      <point x="109.0" y="140.0" type="line"/>
      <point x="122.0" y="113.0"/>
      <point x="153.0" y="100.0"/>
      <point x="177.0" y="100.0" type="curve" smooth="yes"/>
      <point x="380.0" y="100.0" type="line"/>
    </contour>
    <component base="arMeem.medi" xOffset="195"/>
  </outline>
</glyph>
<glyph name="arMeem.init" format="2">
  <advance width="418"/>
  <anchor x="240.0" y="550.0" name="markAbove"/>
  <anchor x="245.0" y="-150.0" name="markBelow"/>
  <outline>
    <contour>
      <point x="96.0" y="150.0" type="curve" smooth="yes"/>
      <point x="96.0" y="233.0"/>
      <point x="163.0" y="300.0"/>
      <point x="245.0" y="300.0" type="curve" smooth="yes"/>
      <point x="327.0" y="300.0"/>
      <point x="393.0" y="233.0"/>
      <point x="393.0" y="150.0" type="curve" smooth="yes"/>
      <point x="393.0" y="67.0"/>
      <point x="327.0" y="0.0"/>
      <point x="245.0" y="0.0" type="curve" smooth="yes"/>
      <point x="163.0" y="0.0"/>
      <point x="96.0" y="67.0"/>
    </contour>
    <contour>
      <point x="-20.0" y="100.0" type="line"/>
      <point x="180.0" y="100.0" type="line"/>
      <point x="245.0" y="0.0" type="line"/>
      <point x="-20.0" y="0.0" type="line"/>
    </contour>
    <contour>
      <point x="195.0" y="150.0" type="curve" smooth="yes"/>
      <point x="195.0" y="122.0"/>
      <point x="217.0" y="100.0"/>
      <point x="245.0" y="100.0" type="curve" smooth="yes"/>
      <point x="273.0" y="100.0"/>
      <point x="295.0" y="122.0"/>
      <point x="295.0" y="150.0" type="curve" smooth="yes"/>
      <point x="295.0" y="178.0"/>
      <point x="273.0" y="200.0"/>
      <point x="245.0" y="200.0" type="curve" smooth="yes"/>
      <point x="217.0" y="200.0"/>
      <point x="195.0" y="178.0"/>
    </contour>
  </outline>
</glyph>
<glyph name="arMeem.isol1" format="2">
  <advance width="347"/>
  <anchor x="190.0" y="550.0" name="markAbove"/>
  <anchor x="230.0" y="-150.0" name="markBelow"/>
  <outline>
    <contour>
      <point x="125.0" y="-100.0" type="line" smooth="yes"/>
      <point x="125.0" y="-190.0"/>
      <point x="5.0" y="-235.0"/>
      <point x="-50.0" y="-181.0" type="curve"/>
      <point x="-44.0" y="-181.0"/>
      <point x="25.0" y="-164.0"/>
      <point x="25.0" y="-100.0" type="curve" smooth="yes"/>
      <point x="25.0" y="150.0" type="line"/>
      <point x="125.0" y="92.0" type="line"/>
    </contour>
    <contour>
      <point x="124.0" y="150.0" type="curve" smooth="yes"/>
      <point x="124.0" y="122.0"/>
      <point x="146.0" y="100.0"/>
      <point x="174.0" y="100.0" type="curve" smooth="yes"/>
      <point x="202.0" y="100.0"/>
      <point x="224.0" y="122.0"/>
      <point x="224.0" y="150.0" type="curve" smooth="yes"/>
      <point x="224.0" y="178.0"/>
      <point x="202.0" y="200.0"/>
      <point x="174.0" y="200.0" type="curve" smooth="yes"/>
      <point x="146.0" y="200.0"/>
      <point x="124.0" y="178.0"/>
    </contour>
    <contour>
      <point x="25.0" y="150.0" type="curve" smooth="yes"/>
      <point x="25.0" y="229.0"/>
      <point x="87.0" y="295.0"/>
      <point x="164.0" y="300.0" type="curve"/>
      <point x="171.0" y="326.0"/>
      <point x="182.0" y="337.0"/>
      <point x="193.0" y="349.0" type="curve"/>
      <point x="281.0" y="294.0"/>
      <point x="322.0" y="226.0"/>
      <point x="322.0" y="150.0" type="curve" smooth="yes"/>
      <point x="322.0" y="67.0"/>
      <point x="256.0" y="0.0"/>
      <point x="174.0" y="0.0" type="curve" smooth="yes"/>
      <point x="92.0" y="0.0"/>
      <point x="25.0" y="67.0"/>
    </contour>
  </outline>
</glyph>
<glyph name="arMeem.isol2" format="2">
  <advance width="435"/>
  <anchor x="280.0" y="550.0" name="markAbove"/>
  <anchor x="230.0" y="-150.0" name="markBelow"/>
  <outline>
    <contour>
      <point x="113.0" y="150.0" type="curve" smooth="yes"/>
      <point x="113.0" y="229.0"/>
      <point x="175.0" y="295.0"/>
      <point x="252.0" y="300.0" type="curve"/>
      <point x="259.0" y="326.0"/>
      <point x="270.0" y="337.0"/>
      <point x="281.0" y="349.0" type="curve"/>
      <point x="369.0" y="294.0"/>
      <point x="410.0" y="226.0"/>
      <point x="410.0" y="150.0" type="curve" smooth="yes"/>
      <point x="410.0" y="67.0"/>
      <point x="344.0" y="0.0"/>
      <point x="262.0" y="0.0" type="curve" smooth="yes"/>
      <point x="180.0" y="0.0"/>
      <point x="113.0" y="67.0"/>
    </contour>
    <contour>
      <point x="212.0" y="150.0" type="curve" smooth="yes"/>
      <point x="212.0" y="122.0"/>
      <point x="234.0" y="100.0"/>
      <point x="262.0" y="100.0" type="curve" smooth="yes"/>
      <point x="290.0" y="100.0"/>
      <point x="312.0" y="122.0"/>
      <point x="312.0" y="150.0" type="curve" smooth="yes"/>
      <point x="312.0" y="178.0"/>
      <point x="290.0" y="200.0"/>
      <point x="262.0" y="200.0" type="curve" smooth="yes"/>
      <point x="234.0" y="200.0"/>
      <point x="212.0" y="178.0"/>
    </contour>
    <contour>
      <point x="262.0" y="0.0" type="line"/>
      <point x="25.0" y="0.0" type="line"/>
      <point x="25.0" y="10.0" type="line"/>
      <point x="114.0" y="32.0"/>
      <point x="113.0" y="115.0"/>
      <point x="113.0" y="150.0" type="curve"/>
    </contour>
  </outline>
</glyph>
<glyph name="arReh.fina" format="2">
  <advance width="300"/>
  <outline>
    <contour>
      <point x="320.0" y="100.0" type="line"/>
      <point x="320.0" y="0.0" type="line"/>
      <point x="174.0" y="0.0" type="line"/>
      <point x="174.0" y="100.0" type="line"/>
    </contour>
    <component base="arReh.isol"/>
  </outline>
</glyph>
<glyph name="arSad.fina" format="2">
  <advance width="1245"/>
  <outline>
    <contour>
      <point x="1265.0" y="100.0" type="line"/>
      <point x="1265.0" y="0.0" type="line"/>
      <point x="1080.0" y="0.0" type="line"/>
      <point x="1080.0" y="100.0" type="line"/>
    </contour>
    <component base="arSad.isol"/>
  </outline>
</glyph>
<glyph name="arSeen.fina" format="2">
  <advance width="945"/>
  <anchor x="590.0" y="550.0" name="dotAbove"/>
  <anchor x="590.0" y="550.0" name="markAbove"/>
  <anchor x="590.0" y="-150.0" name="markBelow"/>
  <outline>
    <contour>
      <point x="445.0" y="-0.0" type="line"/>
      <point x="444.0" y="-113.0"/>
      <point x="367.0" y="-200.0"/>
      <point x="216.0" y="-200.0" type="curve" smooth="yes"/>
      <point x="53.0" y="-200.0"/>
      <point x="25.0" y="-62.0"/>
      <point x="25.0" y="0.0" type="curve" smooth="yes"/>
      <point x="25.0" y="88.0"/>
      <point x="88.0" y="167.0"/>
      <point x="151.0" y="207.0" type="curve"/>
      <point x="154.0" y="182.0"/>
      <point x="150.0" y="160.0"/>
      <point x="131.0" y="135.0" type="curve"/>
      <point x="152.0" y="125.0"/>
      <point x="166.0" y="100.0"/>
      <point x="160.0" y="77.0" type="curve"/>
      <point x="141.0" y="88.0"/>
      <point x="129.0" y="92.0"/>
      <point x="111.0" y="90.0" type="curve" smooth="yes"/>
      <point x="73.0" y="86.0"/>
      <point x="55.0" y="39.0"/>
      <point x="55.0" y="0.0" type="curve" smooth="yes"/>
      <point x="55.0" y="-76.0"/>
      <point x="92.0" y="-143.0"/>
      <point x="216.0" y="-143.0" type="curve" smooth="yes"/>
      <point x="318.0" y="-143.0"/>
      <point x="345.0" y="-71.0"/>
      <point x="345.0" y="40.0" type="curve" smooth="yes"/>
      <point x="345.0" y="328.0" type="line"/>
      <point x="445.0" y="350.0" type="line"/>
      <point x="445.0" y="100.0" type="line"/>
      <point x="545.0" y="100.0" type="line"/>
      <point x="545.0" y="328.0" type="line"/>
      <point x="645.0" y="350.0" type="line"/>
      <point x="645.0" y="100.0" type="line"/>
      <point x="745.0" y="100.0" type="line"/>
      <point x="745.0" y="328.0" type="line"/>
      <point x="845.0" y="350.0" type="line"/>
      <point x="845.0" y="100.0" type="line"/>
      <point x="965.0" y="100.0" type="line"/>
      <point x="965.0" y="0.0" type="line"/>
    </contour>
  </outline>
</glyph>
<glyph name="arTah.fina" format="2">
  <advance width="1085"/>
  <outline>
    <contour>
      <point x="1105.0" y="100.0" type="line"/>
      <point x="1105.0" y="0.0" type="line"/>
      <point x="925.0" y="0.0" type="line"/>
      <point x="925.0" y="100.0" type="line"/>
    </contour>
    <component base="arTah.isol"/>
  </outline>
</glyph>
<glyph name="arTah.init" format="2">
  <advance width="940"/>
  <outline>
    <contour>
      <point x="35.0" y="0.0" type="line"/>
      <point x="-60.0" y="0.0" type="line"/>
      <point x="-60.0" y="100.0" type="line"/>
      <point x="35.0" y="100.0" type="line"/>
    </contour>
    <component base="arTah.isol" xOffset="-70"/>
  </outline>
</glyph>
<glyph name="arTah.isol" format="2">
  <advance width="1010"/>
  <anchor x="535.0" y="550.0" name="dotAbove"/>
  <anchor x="535.0" y="550.0" name="markAbove"/>
  <anchor x="535.0" y="-150.0" name="markBelow"/>
  <outline>
    <contour>
      <point x="185.0" y="50.0" type="line"/>
      <point x="185.0" y="778.0" type="line"/>
      <point x="285.0" y="800.0" type="line"/>
      <point x="285.0" y="50.0" type="line"/>
    </contour>
    <contour>
      <point x="230.0" y="300.0" type="line"/>
      <point x="795.0" y="300.0" type="line" smooth="yes"/>
      <point x="1002.0" y="300.0"/>
      <point x="985.0" y="143.0"/>
      <point x="985.0" y="23.0" type="curve" smooth="yes"/>
      <point x="985.0" y="-2.0"/>
      <point x="945.0" y="0.0"/>
      <point x="945.0" y="0.0" type="curve"/>
      <point x="25.0" y="0.0" type="line"/>
      <point x="85.0" y="100.0" type="line"/>
      <point x="885.0" y="100.0" type="line"/>
      <point x="886.0" y="156.0"/>
      <point x="870.0" y="200.0"/>
      <point x="795.0" y="200.0" type="curve" smooth="yes"/>
      <point x="230.0" y="200.0" type="line"/>
    </contour>
  </outline>
</glyph>
<glyph name="arWaw.fina" format="2">
  <advance width="400"/>
  <outline>
    <contour>
      <point x="420.0" y="100.0" type="line"/>
      <point x="420.0" y="0.0" type="line"/>
      <point x="173.0" y="0.0" type="line"/>
      <point x="223.0" y="100.0" type="line"/>
    </contour>
    <component base="arWaw.isol"/>
  </outline>
</glyph>
<glyph name="arYeh.isol1" format="2">
  <advance width="765"/>
  <anchor x="240.0" y="-150.0" name="dotBelow"/>
  <anchor x="40.0" y="200.0" name="hamzaAbove"/>
  <anchor x="240.0" y="-150.0" name="markBelow"/>
  <anchor x="322.0" y="700.0" name="markAbove"/>
  <outline>
    <contour>
      <point x="322.0" y="100.0" type="line"/>
      <point x="177.0" y="100.0" type="line" smooth="yes"/>
      <point x="153.0" y="100.0"/>
      <point x="122.0" y="113.0"/>
      <point x="109.0" y="140.0" type="curve"/>
      <point x="25.0" y="0.0" type="line"/>
      <point x="380.0" y="0.0" type="line"/>
    </contour>
    <contour>
      <point x="565.0" y="0.0" type="line"/>
      <point x="740.0" y="0.0" type="line"/>
      <point x="656.0" y="140.0" type="line"/>
      <point x="643.0" y="113.0"/>
      <point x="612.0" y="100.0"/>
      <point x="588.0" y="100.0" type="curve" smooth="yes"/>
      <point x="535.0" y="100.0" type="line"/>
    </contour>
    <contour>
      <point x="433.0" y="0.0" type="line"/>
      <point x="289.0" y="252.0" type="line" smooth="yes"/>
      <point x="252.0" y="317.0"/>
      <point x="266.0" y="383.0"/>
      <point x="315.0" y="410.0" type="curve"/>
      <point x="552.0" y="0.0" type="line"/>
      <point x="667.0" y="0.0" type="line"/>
      <point x="328.0" y="591.0" type="line"/>
      <point x="328.0" y="539.0"/>
      <point x="304.0" y="523.0"/>
      <point x="263.0" y="493.0" type="curve" smooth="yes"/>
      <point x="182.0" y="433.0"/>
      <point x="120.0" y="345.0"/>
      <point x="202.0" y="203.0" type="curve" smooth="yes"/>
      <point x="318.0" y="0.0" type="line"/>
    </contour>
  </outline>
</glyph>
<glyph name="uni06F7.urd" format="2">
  <advance width="600"/>
  <outline>
    <contour>
      <point x="318" y="565" type="line"/>
      <point x="166" y="0" type="line"/>
      <point x="70" y="26" type="line"/>
      <point x="228" y="612" type="line"/>
    </contour>
    <contour>
      <point x="407" y="42" type="line"/>
      <point x="166" y="0" type="line"/>
      <point x="149" y="97" type="line"/>
      <point x="412" y="143" type="line"/>
    </contour>
  </outline>
</glyph>
